<svg width="50" height="15" viewBox="0 0 100 30" fill="none" xmlns="http://www.w3.org/2000/svg">
<path fill-rule="evenodd" clip-rule="evenodd" d="M45.2222 72.2127H15.6827C19.5315 76.9671 25.4089 80 31.984 80C37.0034 80 41.606 78.2382 45.2142 75.2938C46.3368 74.3767 47.3711 73.347 48.2852 72.2127H45.2142H45.2222ZM18.7537 42.0611C18.7537 41.9485 18.7537 41.8439 18.7537 41.7313V41.7071C18.7537 41.6025 18.7537 41.4899 18.7698 41.3853V41.3612C18.7698 41.2566 18.7858 41.152 18.7938 41.0475V41.0233C18.8018 40.9187 18.8099 40.8142 18.8259 40.7096V40.6774C18.8419 40.5728 18.8499 40.4763 18.866 40.3717V40.3395C18.882 40.243 18.8981 40.1384 18.9141 40.0419V40.0097C18.9301 39.9131 18.9462 39.8166 18.9622 39.7201V39.6798C18.9863 39.5833 19.0023 39.4948 19.0263 39.3983V39.342C19.0584 39.2535 19.0745 39.165 19.0985 39.0765L19.1145 39.0202C19.1386 38.9317 19.1546 38.8432 19.1787 38.7547L19.1947 38.6903C19.2188 38.6099 19.2348 38.5295 19.2589 38.449L19.2829 38.3686C19.299 38.2962 19.323 38.2318 19.3471 38.1594L19.3792 38.0468C19.3952 37.9824 19.4192 37.9181 19.4433 37.8617L19.4834 37.7411C19.5074 37.6767 19.5315 37.6124 19.5475 37.548L19.5956 37.4273C19.6197 37.371 19.6357 37.3147 19.6598 37.2503C19.6758 37.2021 19.6999 37.1538 19.7159 37.1055L19.772 36.9688L19.8362 36.8159L19.9003 36.6711C19.9244 36.6148 19.9485 36.5585 19.9805 36.5022L20.0286 36.3976V36.3815C20.0607 36.3172 20.0928 36.2608 20.1249 36.1965L20.173 36.0839C20.205 36.0195 20.2371 35.9551 20.2692 35.8908L20.2932 35.8425C20.3414 35.754 20.3814 35.6736 20.4296 35.5851V35.569C20.4937 35.4805 20.5418 35.384 20.5979 35.2955C20.6541 35.1909 20.7102 35.0944 20.7743 34.9978C21.4078 33.9842 22.1695 33.0671 23.0355 32.2626L23.1478 32.158L23.26 32.0615C23.3081 32.0132 23.3562 31.973 23.4124 31.9247L23.5006 31.8523C23.5487 31.8121 23.6048 31.7719 23.6529 31.7236L23.7411 31.6512C23.7972 31.6029 23.8534 31.5627 23.9095 31.5225L23.9897 31.4581C24.0458 31.4179 24.0939 31.3777 24.1501 31.3375L24.2543 31.257C24.3024 31.2248 24.3425 31.1927 24.3906 31.1605L24.5189 31.072L24.6552 30.9835L24.7995 30.887L24.9278 30.8065C24.984 30.7743 25.0321 30.7422 25.0882 30.7019L25.1844 30.6456C25.2405 30.6134 25.2967 30.5732 25.3608 30.541L25.457 30.4847C25.5132 30.4526 25.5773 30.4204 25.6334 30.3801L25.7297 30.3238C25.7938 30.2917 25.8499 30.2595 25.9141 30.2273L26.0023 30.179C26.0664 30.1469 26.1306 30.1147 26.1947 30.0825L26.307 30.0262C26.3711 29.994 26.4353 29.9618 26.5074 29.9377L26.5956 29.8975C26.6598 29.8653 26.732 29.8412 26.7961 29.809L26.8923 29.7687C26.9645 29.7366 27.0286 29.7124 27.1008 29.6803L27.181 29.6481C27.2531 29.6159 27.3253 29.5918 27.4055 29.5676L27.4777 29.5435C27.5578 29.5194 27.63 29.4872 27.7102 29.463L27.7824 29.4389C27.8625 29.4148 27.9427 29.3906 28.0149 29.3585L28.079 29.3343C28.1592 29.3102 28.2394 29.2861 28.3276 29.2619L28.3837 29.2458C28.4639 29.2217 28.5521 29.1976 28.6323 29.1815L28.6964 29.1654C28.7846 29.1413 28.8729 29.1171 28.9691 29.101H29.0092C29.1054 29.0689 29.2016 29.0447 29.2978 29.0286H29.3459C29.4422 29.0045 29.5304 28.9804 29.6266 28.9643H29.6667C29.7629 28.9401 29.8511 28.9241 29.9473 28.908H29.9954C30.0836 28.8838 30.1798 28.8758 30.268 28.8597H30.3242C30.4124 28.8436 30.5006 28.8275 30.5968 28.8195H30.6609C30.7491 28.8034 30.8373 28.7953 30.9336 28.7873H30.9897C31.0859 28.7792 31.1821 28.7712 31.2783 28.7632H31.3184C31.4147 28.7632 31.5189 28.7551 31.6151 28.7471H31.6552C31.7595 28.7471 31.8637 28.7471 31.9679 28.7471H31.984C32.3288 28.7471 32.6655 28.7632 33.0023 28.7873C33.1145 28.7953 33.2268 28.8034 33.3391 28.8195C33.8923 28.8758 34.4376 28.9643 34.9748 29.093C35.079 29.1171 35.1913 29.1413 35.2955 29.1734C35.3998 29.1976 35.504 29.2298 35.6082 29.2619C35.8167 29.3182 36.0252 29.3826 36.2337 29.455C36.3379 29.4872 36.4422 29.5274 36.5384 29.5596C36.6426 29.5998 36.7388 29.632 36.8431 29.6722C36.9393 29.7124 37.0435 29.7527 37.1397 29.7929C37.3402 29.8733 37.5326 29.9618 37.7251 30.0584C37.9175 30.1549 38.11 30.2514 38.2944 30.348C38.3906 30.3962 38.4788 30.4525 38.575 30.5008C38.6713 30.5571 38.7595 30.6054 38.8477 30.6617C38.9359 30.718 39.0321 30.7743 39.1203 30.8307C39.2085 30.887 39.2967 30.9433 39.3849 31.0076C39.4731 31.0639 39.5613 31.1283 39.6495 31.1927C39.7377 31.257 39.8179 31.3133 39.9061 31.3777C39.9943 31.4421 40.0745 31.5064 40.1546 31.5708C40.2348 31.6351 40.323 31.6995 40.4032 31.7719C40.4834 31.8443 40.5636 31.9086 40.6438 31.981C40.7239 32.0535 40.8041 32.1178 40.8843 32.1902C40.9645 32.2626 41.0367 32.335 41.1168 32.4074C41.197 32.4798 41.2692 32.5522 41.3414 32.6327C41.4135 32.7051 41.4937 32.7855 41.5659 32.8579C41.638 32.9384 41.7102 33.0108 41.7824 33.0912C41.8545 33.1717 41.9267 33.2521 41.9908 33.3326C42.063 33.413 42.1271 33.4935 42.1993 33.5739C42.2635 33.6544 42.3356 33.7348 42.3998 33.8233C42.4639 33.9037 42.5281 33.9922 42.5922 34.0727C42.6564 34.1612 42.7205 34.2416 42.7766 34.3301C42.8408 34.4186 42.8969 34.5071 42.9611 34.5956C43.0172 34.6841 43.0813 34.7726 43.1375 34.8611C43.1936 34.9496 43.2497 35.038 43.3058 35.1346C43.362 35.2231 43.4181 35.3196 43.4662 35.4081C43.5223 35.5046 43.5704 35.5931 43.6186 35.6897C43.6667 35.7862 43.7228 35.8747 43.7709 35.9712C43.819 36.0678 43.8671 36.1643 43.9152 36.2608C43.9633 36.3574 44.0034 36.4539 44.0515 36.5505C44.0997 36.647 44.1397 36.7435 44.1798 36.8481C44.2199 36.9446 44.26 37.0492 44.3001 37.1458C44.3402 37.2423 44.3803 37.3469 44.4124 37.4515C44.4525 37.556 44.4845 37.6526 44.5166 37.7572C44.5487 37.8617 44.5808 37.9663 44.6128 38.0709C44.6449 38.1755 44.677 38.2801 44.709 38.3846C44.7411 38.4892 44.7652 38.5938 44.7973 38.6984C44.8213 38.803 44.8534 38.9076 44.8774 39.0202C44.9015 39.1248 44.9255 39.2374 44.9496 39.342C44.9737 39.4466 44.9897 39.5592 45.0137 39.6638C45.0298 39.7764 45.0538 39.881 45.0699 39.9936C45.0859 40.1062 45.1019 40.2108 45.118 40.3234C45.134 40.4361 45.142 40.5487 45.1581 40.6533C45.1661 40.7659 45.1821 40.8785 45.1902 40.9911C45.1982 41.1038 45.2062 41.2164 45.2142 41.329C45.2142 41.4416 45.2222 41.5543 45.2302 41.6669C45.2302 41.7795 45.2302 41.8921 45.2302 42.0128C45.2302 42.2139 45.2302 42.4151 45.2142 42.6081V42.769C45.2062 42.8253 45.1982 42.8897 45.1982 42.946L45.1821 43.1069C45.1821 43.1632 45.1741 43.2195 45.1661 43.2758C45.1661 43.3322 45.1581 43.3804 45.1501 43.4367C45.1501 43.493 45.134 43.5494 45.134 43.5976L45.11 43.7666C45.11 43.8229 45.0939 43.8792 45.0859 43.9355C45.0859 43.9918 45.0699 44.0401 45.0619 44.0964C45.0538 44.1527 45.0458 44.209 45.0378 44.2653C45.0298 44.3217 45.0218 44.3699 45.0137 44.4182C45.0057 44.4745 44.9897 44.5308 44.9817 44.5871C44.9737 44.6354 44.9656 44.6837 44.9496 44.74C44.9416 44.7963 44.9255 44.8526 44.9095 44.9089C44.9015 44.9572 44.8855 45.0055 44.8774 45.0537C44.8614 45.1181 44.8454 45.1744 44.8293 45.2388L44.7973 45.3675C44.7812 45.4318 44.7652 45.4881 44.7491 45.5525C44.7331 45.6008 44.7251 45.641 44.709 45.6893C44.693 45.7456 44.677 45.8019 44.6609 45.8662C44.6449 45.9145 44.6369 45.9547 44.6208 46.003C44.6048 46.0674 44.5808 46.1237 44.5647 46.188L44.5246 46.3007C44.5006 46.365 44.4765 46.4374 44.4525 46.5018C44.4364 46.534 44.4284 46.5742 44.4124 46.6064C44.3883 46.6707 44.3643 46.7351 44.3402 46.7994C44.3242 46.8316 44.3162 46.8718 44.3001 46.904C44.2761 46.9684 44.244 47.0327 44.2199 47.0971C44.2039 47.1293 44.1879 47.1695 44.1798 47.2017C44.1558 47.266 44.1237 47.3304 44.0997 47.3947C44.0836 47.4269 44.0676 47.4591 44.0515 47.4913C44.0195 47.5637 43.9794 47.6441 43.9473 47.7165L43.9152 47.7809C43.8751 47.8694 43.8351 47.9498 43.7869 48.0383L43.7709 48.0705C43.7308 48.1509 43.6827 48.2394 43.6426 48.3199L43.6266 48.3601C43.37 48.8267 43.0893 49.2772 42.7847 49.7116L42.7526 49.7518C42.7045 49.8242 42.6483 49.8967 42.6002 49.9691L42.5521 50.0334C42.504 50.0978 42.4639 50.1541 42.4158 50.2184L42.3517 50.3069C42.3116 50.3632 42.2635 50.4196 42.2234 50.4678L42.1592 50.5402C42.1111 50.5965 42.063 50.6529 42.0229 50.7092L41.9588 50.7816C41.9107 50.8379 41.8625 50.8861 41.8144 50.9425L41.7343 51.0229C41.6861 51.0712 41.646 51.1194 41.5979 51.1677C41.5659 51.1999 41.5418 51.2321 41.5097 51.2562C41.4696 51.3045 41.4215 51.3447 41.3734 51.393L41.2932 51.4734C41.2451 51.5217 41.197 51.57 41.1489 51.6182C41.1249 51.6424 41.0928 51.6665 41.0687 51.6987C41.0206 51.7469 40.9725 51.7872 40.9244 51.8274C40.8923 51.8596 40.8603 51.8837 40.8282 51.9159C40.7801 51.9561 40.732 52.0044 40.6838 52.0446L40.5956 52.117C40.5475 52.1572 40.4914 52.2055 40.4433 52.2457L40.3551 52.3181C40.307 52.3583 40.2509 52.4066 40.1947 52.4468L40.1065 52.5192C40.0584 52.5595 40.0023 52.5997 39.9542 52.6399L39.8499 52.7203C39.8018 52.7606 39.7457 52.7928 39.6976 52.833L39.5934 52.9054C39.5372 52.9456 39.4891 52.9778 39.433 53.018L39.3368 53.0824C39.2806 53.1226 39.2245 53.1548 39.1684 53.195L39.0641 53.2593C39.008 53.2915 38.9519 53.3317 38.9038 53.3639L38.7995 53.4283C38.7434 53.4605 38.6953 53.4926 38.6392 53.5248L38.5269 53.5892C38.4708 53.6214 38.4147 53.6535 38.3585 53.6857L38.2463 53.7501C38.1902 53.7823 38.134 53.8064 38.0779 53.8386L37.9576 53.9029C37.9015 53.9271 37.8454 53.9592 37.7892 53.9834L37.669 54.0397C37.6128 54.0638 37.5567 54.096 37.5006 54.1201L37.3803 54.1764C37.3242 54.2006 37.26 54.2328 37.2039 54.2569L37.0916 54.3052C37.0275 54.3293 36.9714 54.3534 36.9072 54.3776L36.795 54.4258C36.7308 54.45 36.6667 54.4741 36.6025 54.4982L36.4983 54.5385C36.4341 54.5626 36.362 54.5867 36.2898 54.6109L36.1936 54.643C36.1294 54.6672 36.0573 54.6913 35.9851 54.7074L35.8809 54.7396C35.8167 54.7637 35.7526 54.7798 35.6804 54.7959C35.6403 54.8039 35.6082 54.82 35.5682 54.8281C35.496 54.8442 35.4318 54.8683 35.3597 54.8844L35.2554 54.9085C35.1913 54.9246 35.1191 54.9407 35.055 54.9568C35.0149 54.9648 34.9748 54.9729 34.9347 54.989C34.8625 55.005 34.7904 55.0211 34.7182 55.0372L34.622 55.0614C34.5498 55.0774 34.4696 55.0935 34.3975 55.1016L34.3013 55.1177C34.2211 55.1338 34.1489 55.1418 34.0687 55.1579C34.0367 55.1579 34.0046 55.1659 33.9725 55.174C33.8923 55.1901 33.8121 55.1981 33.7239 55.2062H33.6438C33.5556 55.2303 33.4593 55.2383 33.3711 55.2464H33.315C33.2188 55.2625 33.1226 55.2705 33.0263 55.2786H32.9863C32.6495 55.3107 32.3127 55.3188 31.9679 55.3188C31.6231 55.3188 31.2864 55.3027 30.9496 55.2786H30.9175C30.8133 55.2705 30.7171 55.2625 30.6128 55.2464H30.5727C30.4765 55.2303 30.3803 55.2223 30.2921 55.2062H30.2199C30.1317 55.182 30.0515 55.174 29.9633 55.1579L29.8832 55.1418C29.803 55.1257 29.7228 55.1177 29.6426 55.1016L29.5544 55.0855C29.4742 55.0694 29.394 55.0533 29.3219 55.0372L29.2337 55.0211C29.1615 55.005 29.0813 54.989 29.0092 54.9729C28.9691 54.9648 28.937 54.9568 28.8969 54.9487C28.8247 54.9326 28.7606 54.9166 28.6884 54.9005L28.5922 54.8763C28.52 54.8602 28.4479 54.8361 28.3757 54.82L28.2715 54.7878C28.1993 54.7637 28.1271 54.7476 28.063 54.7235L27.9668 54.6913C27.8946 54.6672 27.8225 54.643 27.7503 54.6189L27.6621 54.5867C27.5899 54.5626 27.5178 54.5385 27.4536 54.5143L27.3574 54.4741C27.2932 54.45 27.2211 54.4258 27.1569 54.4017L27.0527 54.3615C26.9885 54.3373 26.9244 54.3052 26.8603 54.281L26.764 54.2408C26.6999 54.2167 26.6357 54.1845 26.5796 54.1604L26.4674 54.1121C26.4112 54.0879 26.3471 54.0558 26.2909 54.0316L26.1867 53.9753C26.1306 53.9431 26.0664 53.919 26.0103 53.8868L25.9061 53.8305C25.8499 53.7983 25.7858 53.7662 25.7297 53.734L25.6254 53.6777C25.5693 53.6455 25.5052 53.6133 25.449 53.5811L25.3448 53.5248C25.2887 53.4926 25.2325 53.4605 25.1764 53.4202L25.0802 53.3559C25.0241 53.3237 24.9679 53.2835 24.9118 53.2513L24.8156 53.1869C24.7594 53.1467 24.7033 53.1145 24.6472 53.0743L24.559 53.01C24.5029 52.9697 24.4467 52.9295 24.3906 52.8973L24.2944 52.833C24.2383 52.7928 24.1901 52.7525 24.134 52.7123L24.0378 52.6399C23.9897 52.5997 23.9336 52.5595 23.8855 52.5192L23.7892 52.4468C23.7411 52.4066 23.685 52.3664 23.6369 52.3262L23.5407 52.2538C23.4926 52.2135 23.4444 52.1733 23.3963 52.1331C23.3643 52.1089 23.3322 52.0768 23.3001 52.0526C23.252 52.0124 23.2039 51.9641 23.1558 51.9239L23.0676 51.8435C23.0195 51.8032 22.9714 51.755 22.9233 51.7148L22.8351 51.6343C22.7869 51.586 22.7388 51.5378 22.6907 51.4895L22.6105 51.4171C22.5624 51.3688 22.5143 51.3206 22.4662 51.2643L22.394 51.1838C22.3459 51.1355 22.3058 51.0873 22.2577 51.039L22.1775 50.9505C22.1294 50.9022 22.0893 50.8459 22.0412 50.7977L21.9691 50.7172C21.921 50.6609 21.8809 50.6046 21.8328 50.5563L21.7686 50.4759C21.7285 50.4196 21.6804 50.3713 21.6403 50.315L21.5762 50.2265C21.5281 50.1702 21.48 50.1058 21.4399 50.0415L21.3918 49.9771C21.3356 49.9047 21.2875 49.8323 21.2394 49.7599L21.2073 49.7197C21.1512 49.6473 21.1031 49.5668 21.055 49.4944L21.0309 49.4622C20.7984 49.1083 20.5739 48.7463 20.3734 48.3762C20.3574 48.344 20.3414 48.3199 20.3253 48.2877C20.2932 48.2233 20.2531 48.159 20.2211 48.0866L20.181 48.0061C20.1489 47.9337 20.1088 47.8694 20.0767 47.797C20.0607 47.7648 20.0447 47.7326 20.0367 47.7004C20.0046 47.6361 19.9725 47.5717 19.9485 47.5074C19.9324 47.4671 19.9164 47.435 19.9003 47.3947C19.8763 47.3384 19.8522 47.2741 19.8202 47.2178C19.8041 47.1695 19.7801 47.1293 19.764 47.081C19.74 47.0247 19.7159 46.9684 19.6999 46.9201C19.6838 46.8799 19.6678 46.8316 19.6518 46.7914C19.6277 46.7351 19.6117 46.6788 19.5876 46.6224C19.5716 46.5822 19.5556 46.534 19.5395 46.4937C19.5155 46.4374 19.4994 46.3811 19.4754 46.3167C19.4593 46.2765 19.4433 46.2283 19.4353 46.188C19.4192 46.1317 19.3952 46.0674 19.3792 46.011C19.3631 45.9708 19.3551 45.9226 19.3391 45.8823C19.323 45.818 19.299 45.7617 19.2829 45.6973C19.2669 45.6571 19.2589 45.6088 19.2509 45.5686C19.2348 45.5123 19.2188 45.4479 19.2027 45.3916C19.1947 45.3433 19.1787 45.3031 19.1707 45.2548C19.1546 45.1905 19.1386 45.1342 19.1226 45.0698C19.1145 45.0296 19.1065 44.9813 19.0905 44.9411C19.0745 44.8767 19.0664 44.8204 19.0504 44.7561C19.0424 44.7078 19.0263 44.6595 19.0183 44.6032C19.0103 44.5469 18.9943 44.4906 18.9863 44.4343C18.9782 44.386 18.9702 44.3377 18.9622 44.2895C18.9542 44.2251 18.9381 44.1688 18.9301 44.1044C18.9301 44.0562 18.9141 44.0079 18.9061 43.9677C18.8981 43.9033 18.89 43.847 18.882 43.7827C18.882 43.7344 18.866 43.6861 18.866 43.6379C18.866 43.5815 18.8499 43.5172 18.8419 43.4609C18.8419 43.4126 18.8339 43.3563 18.8259 43.308C18.8259 43.2517 18.8179 43.1954 18.8099 43.131C18.8099 43.0747 18.8018 43.0265 18.7938 42.9701C18.7938 42.9138 18.7938 42.8495 18.7858 42.7932C18.7858 42.7449 18.7858 42.6886 18.7858 42.6403C18.7858 42.5518 18.7858 42.4714 18.7778 42.3829C18.7778 42.2702 18.7778 42.1576 18.7778 42.045L18.7537 42.0611ZM14.0389 31.1203C13.7743 31.5547 13.5258 32.0052 13.2932 32.4637V32.4798C13.2131 32.6246 13.1329 32.7775 13.0607 32.9303C12.9885 33.0832 12.9164 33.236 12.8522 33.3889C12.7881 33.5498 12.7159 33.7026 12.6518 33.8555V33.8716C12.5796 34.0244 12.5155 34.1773 12.4593 34.3301V34.3542C12.3872 34.5071 12.331 34.6599 12.2749 34.8208C12.2188 34.9898 12.1627 35.1507 12.1065 35.3116C11.8339 36.1241 11.6014 36.9688 11.433 37.8215C11.4009 37.9905 11.3688 38.1594 11.3368 38.3364C11.3047 38.5134 11.2806 38.6903 11.2486 38.8593C11.1924 39.2133 11.1523 39.5672 11.1123 39.9131C11.0401 40.6211 11 41.3451 11 42.0691C11 44.7963 11.5132 47.4028 12.4593 49.7921C12.5556 50.0334 12.6518 50.2748 12.756 50.508C12.7801 50.5644 12.8041 50.6126 12.8282 50.6689L12.8763 50.7816C13.0046 51.0631 13.1409 51.3447 13.2772 51.6182L13.3333 51.7308C13.3895 51.8354 13.4456 51.9481 13.5017 52.0526L13.5578 52.1492C13.63 52.2859 13.7102 52.4227 13.7824 52.5514L13.8064 52.5916C13.8786 52.7123 13.9507 52.833 14.0229 52.9536L14.0871 53.0582C14.1512 53.1628 14.2153 53.2674 14.2795 53.3639L14.3356 53.4605C14.4158 53.5892 14.504 53.7179 14.5922 53.8466L14.6082 53.8707C14.6884 53.9914 14.7686 54.104 14.8488 54.2247L14.921 54.3212C14.9931 54.4258 15.0733 54.5304 15.1455 54.635L15.1936 54.6994C15.2898 54.8281 15.386 54.9487 15.4822 55.0774L15.5143 55.1177C15.6025 55.2223 15.6827 55.3349 15.7709 55.4395L15.8431 55.528C15.9313 55.6325 16.0195 55.7371 16.1077 55.8337L16.1478 55.8739C16.252 55.9945 16.3562 56.1152 16.4605 56.2278L16.5086 56.2761C16.5968 56.3727 16.685 56.4692 16.7812 56.5657L16.8534 56.6462C16.9496 56.7508 17.0458 56.8473 17.1501 56.9519L17.1741 56.976C17.2864 57.0886 17.3986 57.2013 17.5189 57.3139L17.567 57.3622C17.6632 57.4587 17.7594 57.5472 17.8637 57.6357L17.9359 57.7C18.1684 57.9092 18.4089 58.1184 18.6495 58.3195L18.6976 58.3597C18.8018 58.4482 18.9061 58.5286 19.0103 58.6171L19.0825 58.6734C19.331 58.8665 19.5796 59.0596 19.8362 59.2446L19.8923 59.2848C20.0046 59.3653 20.1249 59.4457 20.2371 59.5262L20.2932 59.5664C20.5578 59.7434 20.8305 59.9204 21.1031 60.0893L21.1592 60.1215C21.2795 60.1939 21.3998 60.2663 21.52 60.3387L21.5762 60.3709C21.8568 60.5318 22.1375 60.6846 22.4261 60.8375L22.4822 60.8616C22.6186 60.934 22.7549 60.9984 22.8912 61.0627L22.9152 61.0788C23.2119 61.2236 23.5086 61.3604 23.8133 61.4891L23.8694 61.5132C24.0057 61.5695 24.1501 61.6259 24.2864 61.6822L24.3184 61.6983C24.6231 61.8189 24.9359 61.9316 25.2486 62.0361L25.3047 62.0522C25.7778 62.2131 26.2589 62.3579 26.74 62.4786H26.7801C27.1088 62.5751 27.4376 62.6475 27.7743 62.7199C27.9347 62.7521 28.0951 62.7843 28.2554 62.8165H28.3116C28.6483 62.8889 28.9851 62.9371 29.3219 62.9854H29.3379C29.4983 63.0096 29.6586 63.0256 29.819 63.0417H29.8751C30.2199 63.082 30.5567 63.1061 30.9095 63.1222H30.9416C31.1019 63.1302 31.2623 63.1383 31.4307 63.1383H31.4788C31.6552 63.1383 31.8236 63.1463 32 63.1463C37.0195 63.1463 41.622 61.3845 45.2302 58.4401C47.8121 56.3324 49.8889 53.6214 51.244 50.5241C52.3505 47.982 52.9759 45.1744 53 42.23C53 42.1818 53 42.1335 53 42.0933V21.6275C50.2016 22.4159 47.8683 24.3225 46.5132 26.8324C46.1443 26.4785 45.7595 26.1325 45.3585 25.8027L45.2383 25.6981C45.1501 25.6257 45.0699 25.5614 44.9817 25.497L44.9496 25.4729C44.8213 25.3763 44.701 25.2798 44.5727 25.1833H44.5647C44.4364 25.0787 44.3001 24.9821 44.1718 24.8856L44.1478 24.8695C44.0195 24.781 43.8992 24.6925 43.7709 24.604L43.7308 24.5799C43.6025 24.4914 43.4662 24.4029 43.3379 24.3225H43.3219C43.1856 24.2259 43.0412 24.1374 42.9049 24.049H42.8889C42.7526 23.9605 42.6243 23.88 42.488 23.7996L42.4399 23.7754C42.3116 23.703 42.1753 23.6226 42.047 23.5502L42.0149 23.5341C41.8786 23.4617 41.7342 23.3812 41.5899 23.3088L41.5418 23.2847C41.4055 23.2203 41.2772 23.1479 41.1409 23.0836L41.0848 23.0594C40.9565 22.9951 40.8202 22.9307 40.6838 22.8744L40.6277 22.8503C40.4834 22.7859 40.331 22.7216 40.1867 22.6572C40.0424 22.5929 39.89 22.5365 39.7457 22.4722L39.6816 22.4481C39.5452 22.3917 39.4089 22.3435 39.2646 22.2872L39.2165 22.2711C39.0641 22.2148 38.9118 22.1665 38.7595 22.1102H38.7434C38.5911 22.0539 38.4307 22.0056 38.2784 21.9493L38.2302 21.9332C38.0859 21.8849 37.9416 21.8447 37.7973 21.8045L37.7331 21.7884C37.5888 21.7482 37.4364 21.7079 37.2841 21.6677H37.252C37.0916 21.6194 36.9313 21.5792 36.7709 21.539H36.7228C36.5704 21.4907 36.4181 21.4585 36.2657 21.4264H36.2176C36.0653 21.3861 35.9129 21.354 35.7606 21.3298H35.7125C35.5521 21.2896 35.3837 21.2655 35.2234 21.2413H35.1913C35.0309 21.2092 34.8706 21.1931 34.7102 21.1689H34.6621C34.5017 21.1448 34.3494 21.1207 34.189 21.1046H34.1409C33.9725 21.0804 33.8041 21.0644 33.6357 21.0563H33.6197C33.4513 21.0402 33.291 21.0322 33.1226 21.0241H33.0664C32.9061 21.0161 32.7457 21.008 32.5853 21H32.5372C32.3608 21 32.1924 21 32.016 21C31.8477 21 31.6793 21 31.5189 21H31.4628C31.3024 21 31.142 21.008 30.9817 21.0161H30.9095C30.7491 21.0241 30.5968 21.0402 30.4444 21.0483H30.3723C30.2199 21.0644 30.0596 21.0804 29.9072 21.0965H29.8431C29.6827 21.1207 29.5223 21.1368 29.362 21.1609H29.3299C29.1695 21.185 29.0092 21.2092 28.8488 21.2333H28.8247C28.6644 21.2574 28.504 21.2896 28.3517 21.3137H28.2955C28.1432 21.354 27.9908 21.3781 27.8385 21.4103L27.7663 21.4264C27.614 21.4585 27.4616 21.4907 27.3093 21.5229L27.2531 21.539C27.1008 21.5712 26.9485 21.6114 26.8041 21.6516L26.748 21.6677C26.5956 21.7079 26.4433 21.7482 26.2909 21.7964H26.2749C25.9542 21.893 25.6415 21.9895 25.3287 22.0941L25.2887 22.1102C25.1443 22.1584 24.992 22.2148 24.8477 22.263L24.7995 22.2791C24.6552 22.3354 24.5109 22.3837 24.3666 22.44L24.3104 22.4641C24.1661 22.5205 24.0218 22.5768 23.8855 22.6411L23.8454 22.6572C23.701 22.7216 23.5487 22.7859 23.4044 22.8503H23.3963C23.244 22.9227 23.0997 22.9951 22.9473 23.0675C22.803 23.1399 22.6586 23.2123 22.5223 23.2847L22.4822 23.3088C22.3459 23.3812 22.2096 23.4536 22.0733 23.526L22.0332 23.5502C21.8969 23.6226 21.7686 23.695 21.6323 23.7754L21.5762 23.8076C21.4399 23.8881 21.3116 23.9605 21.1753 24.0409L21.1512 24.057C20.8706 24.2259 20.5979 24.4029 20.3253 24.5879H20.3093C20.181 24.6845 20.0527 24.773 19.9244 24.8695L19.8843 24.8936C19.764 24.9821 19.6357 25.0706 19.5155 25.1672L19.4674 25.1993C19.3471 25.2878 19.2268 25.3763 19.1145 25.4729L19.0584 25.5131C18.9381 25.6096 18.8259 25.6981 18.7056 25.7947L18.6735 25.8268C18.425 26.036 18.1844 26.2452 17.9439 26.4624L17.9278 26.4785C17.8156 26.583 17.6953 26.6876 17.583 26.8002L17.543 26.8324C17.4307 26.937 17.3265 27.0416 17.2222 27.1462L17.1741 27.1944C17.0699 27.299 16.9656 27.4036 16.8614 27.5162L16.8133 27.5645C16.709 27.6771 16.6048 27.7817 16.5086 27.8943L16.4765 27.9346C16.3723 28.0472 16.268 28.1678 16.1718 28.2805C15.4101 29.1654 14.7125 30.1227 14.1031 31.1283L14.0389 31.1203Z" fill="#56423E"/>
<path d="M82.95 60.769V57.535C81.9233 58.613 80.6143 59.5113 79.023 60.23C77.483 60.9487 75.943 61.308 74.403 61.308C72.3497 61.308 70.3733 60.923 68.474 60.153C66.626 59.3317 64.9833 58.2023 63.546 56.765C62.16 55.3277 61.0563 53.685 60.235 51.837C59.465 49.9377 59.08 47.9357 59.08 45.831V22.5H65.856V45.831C65.856 48.1923 66.703 50.22 68.397 51.914C70.091 53.608 72.093 54.455 74.403 54.455C75.481 54.455 76.559 54.224 77.637 53.762C78.715 53.3 79.639 52.684 80.409 51.914C82.103 50.22 82.95 48.1923 82.95 45.831V22.5H89.649V60.769H82.95ZM116.025 33.973C115.871 33.049 115.537 32.1763 115.024 31.355C114.048 29.661 112.123 28.814 109.249 28.814C107.709 28.814 106.528 28.9937 105.707 29.353C104.629 29.7637 103.807 30.354 103.243 31.124C102.729 31.894 102.473 32.741 102.473 33.665C102.473 34.7943 102.883 35.821 103.705 36.745C104.577 37.7203 105.989 38.2337 107.94 38.285C111.379 38.439 114.151 38.8497 116.256 39.517C118.412 40.1843 120.054 41.3393 121.184 42.982C122.364 44.6247 122.955 46.9347 122.955 49.912C122.955 52.9407 121.8 55.5587 119.49 57.766C118.36 58.844 117.026 59.7167 115.486 60.384C113.997 61.0513 112.431 61.385 110.789 61.385H109.634C105.527 61.385 102.216 60.2043 99.7005 57.843C97.6472 55.9437 96.3638 53.2743 95.8505 49.835H102.704C102.96 51.067 103.474 52.068 104.244 52.838C105.424 53.9673 107.067 54.532 109.172 54.532C109.736 54.532 110.147 54.5063 110.404 54.455C112.2 54.3523 113.612 53.8647 114.639 52.992C115.665 52.068 116.179 50.9387 116.179 49.604C116.179 47.756 115.614 46.5497 114.485 45.985C113.355 45.4203 111.174 45.138 107.94 45.138C103.884 45.138 100.779 43.8547 98.6225 41.288C96.8772 39.3373 96.0045 36.8733 96.0045 33.896C96.0045 33.2287 96.0302 32.7153 96.0815 32.356C96.4922 29.0193 97.8525 26.4783 100.163 24.733C102.524 22.9363 105.63 22.038 109.48 22.038C112.303 22.038 114.767 22.654 116.872 23.886C118.36 24.81 119.644 26.0933 120.722 27.736C121.748 29.3787 122.416 31.432 122.724 33.896L122.57 33.973H116.025ZM141.407 29.43V61H134.862V29.43H129.087V22.5H134.862V9.795H141.407V22.5H147.182V29.43H141.407ZM182.999 61V55.148C181.356 57.0473 179.457 58.5617 177.301 59.691C175.145 60.8203 172.861 61.385 170.448 61.385C167.779 61.385 165.263 60.8973 162.902 59.922C160.592 58.9467 158.539 57.5607 156.742 55.764C154.945 54.0187 153.534 51.9653 152.507 49.604C151.532 47.1913 151.044 44.676 151.044 42.058C151.044 39.44 151.532 36.9503 152.507 34.589C153.534 32.1763 154.945 30.0717 156.742 28.275C158.539 26.4783 160.592 25.0923 162.902 24.117C165.263 23.1417 167.779 22.654 170.448 22.654C172.912 22.654 175.222 23.1673 177.378 24.194C179.585 25.2207 181.459 26.658 182.999 28.506V23.424H189.929V61H182.999ZM170.448 29.507C168.754 29.507 167.111 29.8407 165.52 30.508C163.98 31.124 162.645 31.9967 161.516 33.126C160.387 34.2553 159.488 35.6157 158.821 37.207C158.205 38.747 157.897 40.364 157.897 42.058C157.897 43.752 158.205 45.369 158.821 46.909C159.488 48.449 160.387 49.7837 161.516 50.913C162.645 52.0423 163.98 52.9407 165.52 53.608C167.111 54.224 168.754 54.532 170.448 54.532C172.142 54.532 173.759 54.224 175.299 53.608C176.839 52.9407 178.174 52.0423 179.303 50.913C180.432 49.7837 181.305 48.449 181.921 46.909C182.588 45.369 182.922 43.752 182.922 42.058C182.922 40.364 182.588 38.747 181.921 37.207C181.305 35.6157 180.432 34.2553 179.303 33.126C178.174 31.9967 176.839 31.124 175.299 30.508C173.759 29.8407 172.142 29.507 170.448 29.507ZM207.695 28.968V61H201.227V28.968H197.608V22.5H201.304C201.406 20.036 202.099 17.8287 203.383 15.878C204.717 13.9273 206.463 12.413 208.619 11.335C210.775 10.257 213.136 9.718 215.703 9.718V16.34C213.547 16.2373 211.724 16.7763 210.236 17.957C208.798 19.1377 208.028 20.652 207.926 22.5H215.703V28.968H207.695ZM231.983 28.968V61H225.515V28.968H221.896V22.5H225.592C225.695 20.036 226.388 17.8287 227.671 15.878C229.006 13.9273 230.751 12.413 232.907 11.335C235.063 10.257 237.424 9.718 239.991 9.718V16.34C237.835 16.2373 236.013 16.7763 234.524 17.957C233.087 19.1377 232.317 20.652 232.214 22.5H239.991V28.968H231.983ZM261.812 61.385C259.194 61.385 256.704 60.8717 254.343 59.845C251.982 58.8183 249.903 57.4067 248.106 55.61C246.309 53.8133 244.898 51.7343 243.871 49.373C242.844 47.0117 242.331 44.522 242.331 41.904C242.331 39.2347 242.844 36.6937 243.871 34.281C244.898 31.8683 246.309 29.7637 248.106 27.967C249.903 26.1703 251.982 24.7843 254.343 23.809C256.704 22.7823 259.194 22.269 261.812 22.269C264.481 22.269 267.022 22.7823 269.435 23.809C271.848 24.7843 273.952 26.1703 275.749 27.967C277.546 29.7637 278.932 31.8683 279.907 34.281C280.934 36.6937 281.447 39.2347 281.447 41.904C281.447 44.522 280.934 47.0117 279.907 49.373C278.932 51.7343 277.546 53.8133 275.749 55.61C273.952 57.4067 271.848 58.8183 269.435 59.845C267.022 60.8717 264.481 61.385 261.812 61.385ZM261.812 29.122C258.373 29.122 255.421 30.354 252.957 32.818C251.776 33.9987 250.852 35.3847 250.185 36.976C249.518 38.5673 249.184 40.21 249.184 41.904C249.184 43.598 249.518 45.215 250.185 46.755C250.852 48.295 251.776 49.6553 252.957 50.836C254.138 52.0167 255.472 52.9407 256.961 53.608C258.501 54.2753 260.118 54.609 261.812 54.609C263.506 54.609 265.149 54.2753 266.74 53.608C268.331 52.9407 269.692 52.0167 270.821 50.836C271.95 49.6553 272.849 48.295 273.516 46.755C274.183 45.215 274.517 43.598 274.517 41.904C274.517 40.21 274.183 38.5673 273.516 36.976C272.849 35.3847 271.95 33.9987 270.821 32.818C269.692 31.6373 268.331 30.739 266.74 30.123C265.2 29.4557 263.557 29.122 261.812 29.122Z" fill="#56423E"/>
</svg>
