<svg width="29" height="29" viewBox="0 0 29 29" fill="none" xmlns="http://www.w3.org/2000/svg">
<path fill-rule="evenodd" clip-rule="evenodd" d="M17.7082 20.0888H10.2591C11.2297 21.2983 12.7118 22.0698 14.3699 22.0698C15.6357 22.0698 16.7963 21.6216 17.7062 20.8726C17.9893 20.6393 18.2501 20.3774 18.4806 20.0888H17.7062H17.7082ZM11.0335 12.4187C11.0335 12.39 11.0335 12.3634 11.0335 12.3348V12.3286C11.0335 12.302 11.0335 12.2734 11.0376 12.2468V12.2406C11.0376 12.214 11.0416 12.1874 11.0437 12.1608V12.1547C11.0457 12.1281 11.0477 12.1015 11.0517 12.0749V12.0667C11.0558 12.0401 11.0578 12.0155 11.0619 11.9889V11.9807C11.0659 11.9562 11.0699 11.9296 11.074 11.905V11.8968C11.078 11.8723 11.0821 11.8477 11.0861 11.8232V11.8129C11.0922 11.7884 11.0962 11.7659 11.1023 11.7413V11.727C11.1104 11.7045 11.1144 11.682 11.1205 11.6594L11.1245 11.6451C11.1306 11.6226 11.1346 11.6001 11.1407 11.5776L11.1448 11.5612C11.1508 11.5407 11.1549 11.5203 11.1609 11.4998L11.167 11.4794C11.171 11.4609 11.1771 11.4446 11.1832 11.4261L11.1913 11.3975C11.1953 11.3811 11.2014 11.3648 11.2074 11.3504L11.2176 11.3197C11.2236 11.3034 11.2297 11.287 11.2337 11.2706L11.2459 11.2399C11.2519 11.2256 11.256 11.2113 11.262 11.1949C11.2661 11.1826 11.2721 11.1703 11.2762 11.1581L11.2903 11.1233L11.3065 11.0844L11.3227 11.0475C11.3288 11.0332 11.3348 11.0189 11.3429 11.0046L11.355 10.978V10.9739C11.3631 10.9575 11.3712 10.9432 11.3793 10.9268L11.3914 10.8982C11.3995 10.8818 11.4076 10.8654 11.4157 10.849L11.4218 10.8368C11.4339 10.8143 11.444 10.7938 11.4561 10.7713V10.7672C11.4723 10.7447 11.4845 10.7201 11.4986 10.6976C11.5128 10.671 11.5269 10.6464 11.5431 10.6219C11.7028 10.364 11.8949 10.1307 12.1133 9.92609L12.1416 9.89948L12.1699 9.87492C12.1821 9.86265 12.1942 9.85241 12.2083 9.84013L12.2306 9.82172C12.2427 9.81148 12.2569 9.80125 12.269 9.78897L12.2912 9.77055C12.3054 9.75828 12.3195 9.74804 12.3337 9.73781L12.3539 9.72144C12.3681 9.71121 12.3802 9.70097 12.3944 9.69074L12.4207 9.67028C12.4328 9.66209 12.4429 9.65391 12.455 9.64572L12.4874 9.62321L12.5218 9.6007L12.5581 9.57614L12.5905 9.55568C12.6047 9.54749 12.6168 9.5393 12.6309 9.52907L12.6552 9.51475C12.6694 9.50656 12.6835 9.49633 12.6997 9.48814L12.724 9.47382C12.7381 9.46563 12.7543 9.45745 12.7684 9.44721L12.7927 9.43289C12.8089 9.4247 12.823 9.41652 12.8392 9.40833L12.8614 9.39605C12.8776 9.38787 12.8938 9.37968 12.91 9.37149L12.9383 9.35717C12.9545 9.34898 12.9706 9.3408 12.9888 9.33466L13.0111 9.32443C13.0273 9.31624 13.0455 9.3101 13.0616 9.30191L13.0859 9.29168C13.1041 9.2835 13.1203 9.27736 13.1385 9.26917L13.1587 9.26098C13.1769 9.2528 13.1951 9.24666 13.2153 9.24052L13.2335 9.23438C13.2537 9.22824 13.2719 9.22006 13.2921 9.21392L13.3103 9.20778C13.3306 9.20164 13.3508 9.1955 13.369 9.18731L13.3851 9.18117C13.4054 9.17503 13.4256 9.16889 13.4478 9.16275L13.462 9.15866C13.4822 9.15252 13.5044 9.14638 13.5247 9.14229L13.5408 9.1382C13.5631 9.13206 13.5853 9.12592 13.6096 9.12183H13.6197C13.644 9.11364 13.6682 9.1075 13.6925 9.10341H13.7046C13.7289 9.09727 13.7511 9.09113 13.7754 9.08704H13.7855C13.8098 9.0809 13.832 9.0768 13.8563 9.07271H13.8684C13.8907 9.06657 13.9149 9.06452 13.9372 9.06043H13.9513C13.9736 9.05634 13.9958 9.05225 14.0201 9.0502H14.0362C14.0585 9.04611 14.0807 9.04406 14.105 9.04201H14.1191C14.1434 9.03997 14.1677 9.03792 14.1919 9.03587H14.202C14.2263 9.03587 14.2526 9.03383 14.2769 9.03178H14.287C14.3133 9.03178 14.3395 9.03178 14.3658 9.03178H14.3699C14.4568 9.03178 14.5417 9.03587 14.6267 9.04201C14.655 9.04406 14.6833 9.04611 14.7116 9.0502C14.8511 9.06452 14.9886 9.08704 15.1241 9.11978C15.1504 9.12592 15.1787 9.13206 15.205 9.14024C15.2312 9.14638 15.2575 9.15457 15.2838 9.16275C15.3364 9.17708 15.389 9.19345 15.4415 9.21187C15.4678 9.22006 15.4941 9.23029 15.5184 9.23847C15.5447 9.24871 15.5689 9.25689 15.5952 9.26712C15.6195 9.27736 15.6458 9.28759 15.67 9.29782C15.7206 9.31829 15.7691 9.3408 15.8176 9.36535C15.8662 9.38991 15.9147 9.41447 15.9612 9.43903C15.9855 9.45131 16.0077 9.46563 16.032 9.47791C16.0562 9.49224 16.0785 9.50451 16.1007 9.51884C16.123 9.53316 16.1472 9.54749 16.1695 9.56182C16.1917 9.57614 16.2139 9.59047 16.2362 9.60684C16.2584 9.62116 16.2807 9.63753 16.3029 9.65391C16.3252 9.67028 16.3454 9.6846 16.3676 9.70097C16.3899 9.71735 16.4101 9.73372 16.4303 9.75009C16.4505 9.76646 16.4728 9.78283 16.493 9.80125C16.5132 9.81967 16.5334 9.83604 16.5536 9.85446C16.5739 9.87288 16.5941 9.88925 16.6143 9.90767C16.6345 9.92609 16.6527 9.9445 16.6729 9.96292C16.6932 9.98134 16.7114 9.99976 16.7296 10.0202C16.7478 10.0386 16.768 10.0591 16.7862 10.0775C16.8044 10.098 16.8226 10.1164 16.8408 10.1369C16.859 10.1573 16.8772 10.1778 16.8933 10.1983C16.9115 10.2187 16.9277 10.2392 16.9459 10.2597C16.9621 10.2801 16.9803 10.3006 16.9965 10.3231C17.0126 10.3436 17.0288 10.3661 17.045 10.3865C17.0612 10.4091 17.0773 10.4295 17.0915 10.452C17.1077 10.4745 17.1218 10.497 17.138 10.5196C17.1522 10.5421 17.1683 10.5646 17.1825 10.5871C17.1966 10.6096 17.2108 10.6321 17.225 10.6567C17.2391 10.6792 17.2533 10.7037 17.2654 10.7263C17.2795 10.7508 17.2917 10.7733 17.3038 10.7979C17.3159 10.8224 17.3301 10.8449 17.3422 10.8695C17.3544 10.8941 17.3665 10.9186 17.3786 10.9432C17.3908 10.9677 17.4009 10.9923 17.413 11.0169C17.4251 11.0414 17.4352 11.066 17.4454 11.0926C17.4555 11.1171 17.4656 11.1437 17.4757 11.1683C17.4858 11.1928 17.4959 11.2195 17.504 11.2461C17.5141 11.2727 17.5222 11.2972 17.5303 11.3238C17.5384 11.3504 17.5465 11.377 17.5545 11.4036C17.5626 11.4302 17.5707 11.4568 17.5788 11.4834C17.5869 11.5101 17.593 11.5367 17.601 11.5633C17.6071 11.5899 17.6152 11.6165 17.6213 11.6451C17.6273 11.6717 17.6334 11.7004 17.6395 11.727C17.6455 11.7536 17.6496 11.7822 17.6556 11.8088C17.6597 11.8375 17.6658 11.8641 17.6698 11.8927C17.6738 11.9214 17.6779 11.948 17.6819 11.9766C17.686 12.0053 17.688 12.0339 17.692 12.0605C17.6941 12.0892 17.6981 12.1178 17.7001 12.1465C17.7021 12.1752 17.7042 12.2038 17.7062 12.2325C17.7062 12.2611 17.7082 12.2898 17.7102 12.3184C17.7102 12.3471 17.7102 12.3757 17.7102 12.4064C17.7102 12.4576 17.7102 12.5087 17.7062 12.5578V12.5988C17.7042 12.6131 17.7021 12.6295 17.7021 12.6438L17.6981 12.6847C17.6981 12.699 17.6961 12.7134 17.6941 12.7277C17.6941 12.742 17.692 12.7543 17.69 12.7686C17.69 12.783 17.686 12.7973 17.686 12.8096L17.6799 12.8525C17.6799 12.8669 17.6759 12.8812 17.6738 12.8955C17.6738 12.9098 17.6698 12.9221 17.6678 12.9364C17.6658 12.9508 17.6637 12.9651 17.6617 12.9794C17.6597 12.9937 17.6577 13.006 17.6556 13.0183C17.6536 13.0326 17.6496 13.0469 17.6476 13.0613C17.6455 13.0735 17.6435 13.0858 17.6395 13.1002C17.6374 13.1145 17.6334 13.1288 17.6294 13.1431C17.6273 13.1554 17.6233 13.1677 17.6213 13.18C17.6172 13.1963 17.6132 13.2107 17.6091 13.227L17.601 13.2598C17.597 13.2761 17.593 13.2905 17.5889 13.3068C17.5849 13.3191 17.5828 13.3294 17.5788 13.3416C17.5748 13.356 17.5707 13.3703 17.5667 13.3867C17.5626 13.3989 17.5606 13.4092 17.5566 13.4214C17.5525 13.4378 17.5465 13.4521 17.5424 13.4685L17.5323 13.4972C17.5262 13.5135 17.5202 13.532 17.5141 13.5483C17.5101 13.5565 17.508 13.5667 17.504 13.5749C17.4979 13.5913 17.4919 13.6077 17.4858 13.624C17.4817 13.6322 17.4797 13.6425 17.4757 13.6507C17.4696 13.667 17.4615 13.6834 17.4555 13.6998C17.4514 13.708 17.4474 13.7182 17.4454 13.7264C17.4393 13.7427 17.4312 13.7591 17.4251 13.7755C17.4211 13.7837 17.417 13.7919 17.413 13.8C17.4049 13.8185 17.3948 13.8389 17.3867 13.8573L17.3786 13.8737C17.3685 13.8962 17.3584 13.9167 17.3463 13.9392L17.3422 13.9474C17.3321 13.9679 17.32 13.9904 17.3099 14.0108L17.3058 14.0211C17.2411 14.1398 17.1704 14.2544 17.0935 14.3649L17.0854 14.3751C17.0733 14.3935 17.0591 14.4119 17.047 14.4304L17.0349 14.4467C17.0228 14.4631 17.0126 14.4774 17.0005 14.4938L16.9843 14.5163C16.9742 14.5306 16.9621 14.545 16.952 14.5572L16.9358 14.5757C16.9237 14.59 16.9115 14.6043 16.9014 14.6186L16.8853 14.637C16.8731 14.6514 16.861 14.6637 16.8489 14.678L16.8286 14.6984C16.8165 14.7107 16.8064 14.723 16.7943 14.7353C16.7862 14.7435 16.7801 14.7517 16.772 14.7578C16.7619 14.7701 16.7498 14.7803 16.7376 14.7926L16.7174 14.813C16.7053 14.8253 16.6932 14.8376 16.681 14.8499C16.675 14.856 16.6669 14.8622 16.6608 14.8703C16.6487 14.8826 16.6365 14.8929 16.6244 14.9031C16.6163 14.9113 16.6082 14.9174 16.6002 14.9256C16.588 14.9358 16.5759 14.9481 16.5638 14.9583L16.5415 14.9768C16.5294 14.987 16.5152 14.9993 16.5031 15.0095L16.4809 15.0279C16.4687 15.0382 16.4546 15.0504 16.4404 15.0607L16.4182 15.0791C16.406 15.0893 16.3919 15.0996 16.3798 15.1098L16.3535 15.1302C16.3413 15.1405 16.3272 15.1487 16.315 15.1589L16.2888 15.1773C16.2746 15.1875 16.2625 15.1957 16.2483 15.206L16.2241 15.2223C16.2099 15.2326 16.1957 15.2408 16.1816 15.251L16.1553 15.2674C16.1412 15.2755 16.127 15.2858 16.1149 15.294L16.0886 15.3103C16.0744 15.3185 16.0623 15.3267 16.0481 15.3349L16.0198 15.3513C16.0057 15.3595 15.9915 15.3676 15.9774 15.3758L15.9491 15.3922C15.9349 15.4004 15.9208 15.4065 15.9066 15.4147L15.8763 15.4311C15.8621 15.4372 15.848 15.4454 15.8338 15.4515L15.8035 15.4659C15.7893 15.472 15.7752 15.4802 15.761 15.4863L15.7307 15.5007C15.7165 15.5068 15.7004 15.515 15.6862 15.5211L15.6579 15.5334C15.6417 15.5395 15.6276 15.5457 15.6114 15.5518L15.5831 15.5641C15.5669 15.5702 15.5507 15.5764 15.5346 15.5825L15.5083 15.5927C15.4921 15.5989 15.4739 15.605 15.4557 15.6112L15.4314 15.6194C15.4153 15.6255 15.3971 15.6316 15.3789 15.6357L15.3526 15.6439C15.3364 15.65 15.3202 15.6541 15.302 15.6582C15.2919 15.6603 15.2838 15.6644 15.2737 15.6664C15.2555 15.6705 15.2393 15.6767 15.2211 15.6807L15.1949 15.6869C15.1787 15.691 15.1605 15.6951 15.1443 15.6992C15.1342 15.7012 15.1241 15.7033 15.114 15.7073C15.0958 15.7114 15.0776 15.7155 15.0594 15.7196L15.0351 15.7258C15.0169 15.7299 14.9967 15.734 14.9785 15.736L14.9542 15.7401C14.934 15.7442 14.9158 15.7462 14.8956 15.7503C14.8875 15.7503 14.8794 15.7524 14.8713 15.7544C14.8511 15.7585 14.8309 15.7606 14.8086 15.7626H14.7884C14.7662 15.7687 14.7419 15.7708 14.7197 15.7728H14.7055C14.6813 15.7769 14.657 15.779 14.6327 15.781H14.6226C14.5377 15.7892 14.4528 15.7913 14.3658 15.7913C14.2789 15.7913 14.194 15.7872 14.109 15.781H14.1009C14.0747 15.779 14.0504 15.7769 14.0241 15.7728H14.014C13.9897 15.7687 13.9655 15.7667 13.9432 15.7626H13.925C13.9028 15.7565 13.8826 15.7544 13.8603 15.7503L13.8401 15.7462C13.8199 15.7421 13.7997 15.7401 13.7794 15.736L13.7572 15.7319C13.737 15.7278 13.7168 15.7237 13.6986 15.7196L13.6763 15.7155C13.6581 15.7114 13.6379 15.7073 13.6197 15.7033C13.6096 15.7012 13.6015 15.6992 13.5914 15.6971C13.5732 15.693 13.557 15.6889 13.5388 15.6848L13.5146 15.6787C13.4964 15.6746 13.4782 15.6685 13.46 15.6644L13.4337 15.6562C13.4155 15.65 13.3973 15.646 13.3811 15.6398L13.3568 15.6316C13.3386 15.6255 13.3204 15.6194 13.3022 15.6132L13.28 15.605C13.2618 15.5989 13.2436 15.5927 13.2274 15.5866L13.2032 15.5764C13.187 15.5702 13.1688 15.5641 13.1526 15.558L13.1263 15.5477C13.1102 15.5416 13.094 15.5334 13.0778 15.5273L13.0535 15.517C13.0374 15.5109 13.0212 15.5027 13.007 15.4966L12.9787 15.4843C12.9646 15.4781 12.9484 15.47 12.9342 15.4638L12.908 15.4495C12.8938 15.4413 12.8776 15.4352 12.8635 15.427L12.8372 15.4127C12.823 15.4045 12.8069 15.3963 12.7927 15.3881L12.7664 15.3738C12.7523 15.3656 12.7361 15.3574 12.7219 15.3492L12.6956 15.3349C12.6815 15.3267 12.6673 15.3185 12.6532 15.3083L12.6289 15.2919C12.6148 15.2837 12.6006 15.2735 12.5865 15.2653L12.5622 15.2489C12.548 15.2387 12.5339 15.2305 12.5197 15.2203L12.4975 15.2039C12.4833 15.1937 12.4692 15.1835 12.455 15.1753L12.4308 15.1589C12.4166 15.1487 12.4045 15.1384 12.3903 15.1282L12.3661 15.1098C12.3539 15.0996 12.3398 15.0893 12.3276 15.0791L12.3034 15.0607C12.2912 15.0504 12.2771 15.0402 12.265 15.03L12.2407 15.0116C12.2286 15.0013 12.2164 14.9911 12.2043 14.9809C12.1962 14.9747 12.1881 14.9665 12.18 14.9604C12.1679 14.9502 12.1558 14.9379 12.1436 14.9276L12.1214 14.9072C12.1093 14.8969 12.0971 14.8847 12.085 14.8744L12.0628 14.854C12.0506 14.8417 12.0385 14.8294 12.0264 14.8171L12.0061 14.7987C11.994 14.7864 11.9819 14.7742 11.9697 14.7598L11.9515 14.7394C11.9394 14.7271 11.9293 14.7148 11.9172 14.7025L11.8969 14.68C11.8848 14.6677 11.8747 14.6534 11.8626 14.6411L11.8444 14.6207C11.8322 14.6064 11.8221 14.592 11.81 14.5797L11.7938 14.5593C11.7837 14.545 11.7716 14.5327 11.7615 14.5184L11.7453 14.4958C11.7332 14.4815 11.721 14.4651 11.7109 14.4488L11.6988 14.4324C11.6846 14.414 11.6725 14.3956 11.6604 14.3771L11.6523 14.3669C11.6381 14.3485 11.626 14.328 11.6139 14.3096L11.6078 14.3014C11.5492 14.2114 11.4925 14.1193 11.442 14.0252C11.438 14.017 11.4339 14.0108 11.4299 14.0026C11.4218 13.9863 11.4117 13.9699 11.4036 13.9515L11.3935 13.931C11.3854 13.9126 11.3753 13.8962 11.3672 13.8778C11.3631 13.8696 11.3591 13.8614 11.3571 13.8533C11.349 13.8369 11.3409 13.8205 11.3348 13.8041C11.3308 13.7939 11.3267 13.7857 11.3227 13.7755C11.3166 13.7612 11.3106 13.7448 11.3025 13.7305C11.2984 13.7182 11.2924 13.708 11.2883 13.6957C11.2823 13.6813 11.2762 13.667 11.2721 13.6547C11.2681 13.6445 11.2641 13.6322 11.26 13.622C11.2539 13.6077 11.2499 13.5934 11.2438 13.579C11.2398 13.5688 11.2358 13.5565 11.2317 13.5463C11.2256 13.532 11.2216 13.5176 11.2155 13.5013C11.2115 13.491 11.2074 13.4787 11.2054 13.4685C11.2014 13.4542 11.1953 13.4378 11.1913 13.4235C11.1872 13.4133 11.1852 13.401 11.1812 13.3908C11.1771 13.3744 11.171 13.3601 11.167 13.3437C11.163 13.3335 11.1609 13.3212 11.1589 13.3109C11.1549 13.2966 11.1508 13.2802 11.1468 13.2659C11.1448 13.2536 11.1407 13.2434 11.1387 13.2311C11.1346 13.2148 11.1306 13.2004 11.1266 13.1841C11.1245 13.1738 11.1225 13.1615 11.1185 13.1513C11.1144 13.1349 11.1124 13.1206 11.1084 13.1042C11.1063 13.092 11.1023 13.0797 11.1003 13.0654C11.0983 13.051 11.0942 13.0367 11.0922 13.0224C11.0902 13.0101 11.0881 12.9978 11.0861 12.9856C11.0841 12.9692 11.0801 12.9549 11.078 12.9385C11.078 12.9262 11.074 12.9139 11.072 12.9037C11.0699 12.8873 11.0679 12.873 11.0659 12.8566C11.0659 12.8443 11.0619 12.8321 11.0619 12.8198C11.0619 12.8055 11.0578 12.7891 11.0558 12.7748C11.0558 12.7625 11.0538 12.7482 11.0517 12.7359C11.0517 12.7216 11.0497 12.7072 11.0477 12.6909C11.0477 12.6765 11.0457 12.6643 11.0437 12.6499C11.0437 12.6356 11.0437 12.6192 11.0416 12.6049C11.0416 12.5926 11.0416 12.5783 11.0416 12.566C11.0416 12.5435 11.0416 12.523 11.0396 12.5005C11.0396 12.4719 11.0396 12.4432 11.0396 12.4146L11.0335 12.4187ZM9.84461 9.63549C9.77788 9.746 9.7152 9.8606 9.65656 9.97725V9.98134C9.63634 10.0182 9.61612 10.0571 9.59792 10.0959C9.57972 10.1348 9.56152 10.1737 9.54535 10.2126C9.52917 10.2535 9.51097 10.2924 9.4948 10.3313V10.3354C9.4766 10.3743 9.46042 10.4131 9.44627 10.452V10.4582C9.42807 10.4971 9.41392 10.5359 9.39976 10.5769C9.38561 10.6198 9.37145 10.6608 9.3573 10.7017C9.28855 10.9084 9.22991 11.1233 9.18745 11.3402C9.17936 11.3832 9.17127 11.4261 9.16319 11.4712C9.1551 11.5162 9.14903 11.5612 9.14094 11.6042C9.12679 11.6942 9.11668 11.7843 9.10657 11.8723C9.08837 12.0524 9.07826 12.2365 9.07826 12.4207C9.07826 13.1145 9.20767 13.7775 9.44627 14.3853C9.47053 14.4467 9.4948 14.5081 9.52108 14.5675C9.52715 14.5818 9.53322 14.5941 9.53928 14.6084L9.55141 14.637C9.58377 14.7087 9.61814 14.7803 9.65251 14.8499L9.66667 14.8785C9.68082 14.9051 9.69498 14.9338 9.70913 14.9604L9.72328 14.9849C9.74148 15.0197 9.7617 15.0545 9.7799 15.0873L9.78597 15.0975C9.80417 15.1282 9.82236 15.1589 9.84056 15.1896L9.85674 15.2162C9.87291 15.2428 9.88909 15.2694 9.90527 15.294L9.91942 15.3185C9.93964 15.3513 9.96188 15.384 9.98412 15.4168L9.98817 15.4229C10.0084 15.4536 10.0286 15.4822 10.0488 15.5129L10.067 15.5375C10.0852 15.5641 10.1054 15.5907 10.1236 15.6173L10.1358 15.6337C10.16 15.6664 10.1843 15.6971 10.2086 15.7299L10.2167 15.7401C10.2389 15.7667 10.2591 15.7953 10.2814 15.822L10.2996 15.8445C10.3218 15.8711 10.344 15.8977 10.3663 15.9222L10.3764 15.9325C10.4027 15.9632 10.429 15.9939 10.4553 16.0225L10.4674 16.0348C10.4896 16.0593 10.5119 16.0839 10.5361 16.1085L10.5543 16.1289C10.5786 16.1555 10.6029 16.1801 10.6291 16.2067L10.6352 16.2128C10.6635 16.2415 10.6918 16.2701 10.7222 16.2988L10.7343 16.3111C10.7586 16.3356 10.7828 16.3581 10.8091 16.3806L10.8273 16.397C10.8859 16.4502 10.9466 16.5034 11.0073 16.5546L11.0194 16.5648C11.0457 16.5873 11.072 16.6078 11.0983 16.6303L11.1165 16.6446C11.1791 16.6937 11.2418 16.7429 11.3065 16.7899L11.3207 16.8002C11.349 16.8206 11.3793 16.8411 11.4076 16.8616L11.4218 16.8718C11.4885 16.9168 11.5573 16.9618 11.626 17.0048L11.6402 17.013C11.6705 17.0314 11.7008 17.0498 11.7311 17.0682L11.7453 17.0764C11.8161 17.1174 11.8868 17.1562 11.9596 17.1951L11.9738 17.2013C12.0082 17.2197 12.0425 17.2361 12.0769 17.2524L12.083 17.2565C12.1578 17.2934 12.2326 17.3282 12.3094 17.3609L12.3236 17.367C12.358 17.3814 12.3944 17.3957 12.4287 17.41L12.4368 17.4141C12.5137 17.4448 12.5925 17.4734 12.6714 17.5001L12.6855 17.5041C12.8048 17.5451 12.9262 17.5819 13.0475 17.6126H13.0576C13.1405 17.6372 13.2234 17.6556 13.3083 17.674C13.3488 17.6822 13.3892 17.6904 13.4296 17.6986H13.4438C13.5287 17.717 13.6136 17.7293 13.6986 17.7415H13.7026C13.743 17.7477 13.7835 17.7518 13.8239 17.7559H13.8381C13.925 17.7661 14.01 17.7722 14.0989 17.7763H14.107C14.1474 17.7784 14.1879 17.7804 14.2304 17.7804H14.2425C14.287 17.7804 14.3294 17.7825 14.3739 17.7825C15.6397 17.7825 16.8003 17.3343 17.7102 16.5853C18.3613 16.0491 18.885 15.3595 19.2267 14.5716C19.5058 13.9249 19.6635 13.2107 19.6696 12.4617C19.6696 12.4494 19.6696 12.4371 19.6696 12.4269V7.22066C18.9639 7.42121 18.3755 7.90623 18.0338 8.54472C17.9407 8.45468 17.8437 8.36668 17.7426 8.28277L17.7123 8.25617C17.69 8.23775 17.6698 8.22138 17.6476 8.20501L17.6395 8.19887C17.6071 8.17431 17.5768 8.14975 17.5444 8.1252H17.5424C17.5101 8.09859 17.4757 8.07404 17.4433 8.04948L17.4373 8.04538C17.4049 8.02287 17.3746 8.00036 17.3422 7.97785L17.3321 7.97171C17.2998 7.9492 17.2654 7.92669 17.233 7.90623H17.229C17.1946 7.88167 17.1582 7.85916 17.1239 7.83665H17.1198C17.0854 7.81413 17.0531 7.79367 17.0187 7.7732L17.0066 7.76707C16.9742 7.74865 16.9398 7.72818 16.9075 7.70976L16.8994 7.70567C16.865 7.68725 16.8286 7.66679 16.7922 7.64837L16.7801 7.64223C16.7457 7.62586 16.7134 7.60744 16.679 7.59107L16.6649 7.58493C16.6325 7.56856 16.5981 7.55219 16.5638 7.53786L16.5496 7.53172C16.5132 7.51535 16.4748 7.49898 16.4384 7.48261C16.402 7.46624 16.3636 7.45191 16.3272 7.43554L16.311 7.4294C16.2766 7.41507 16.2423 7.40279 16.2059 7.38847L16.1937 7.38438C16.1553 7.37005 16.1169 7.35777 16.0785 7.34345H16.0744C16.036 7.32912 15.9956 7.31684 15.9572 7.30252L15.945 7.29843C15.9086 7.28615 15.8722 7.27591 15.8358 7.26568L15.8197 7.26159C15.7833 7.25136 15.7448 7.24112 15.7064 7.23089H15.6983C15.6579 7.21861 15.6175 7.20838 15.577 7.19815H15.5649C15.5265 7.18587 15.488 7.17768 15.4496 7.1695H15.4375C15.3991 7.15927 15.3607 7.15108 15.3222 7.14494H15.3101C15.2697 7.13471 15.2272 7.12857 15.1868 7.12243H15.1787C15.1382 7.11424 15.0978 7.11015 15.0574 7.10401H15.0452C15.0048 7.09787 14.9664 7.09173 14.9259 7.08764H14.9138C14.8713 7.0815 14.8289 7.07741 14.7864 7.07536H14.7824C14.7399 7.07127 14.6995 7.06922 14.657 7.06717H14.6428C14.6024 7.06513 14.562 7.06308 14.5215 7.06104H14.5094C14.4649 7.06104 14.4224 7.06104 14.378 7.06104C14.3355 7.06104 14.293 7.06104 14.2526 7.06104H14.2384C14.198 7.06104 14.1576 7.06308 14.1171 7.06513H14.0989C14.0585 7.06717 14.0201 7.07127 13.9816 7.07331H13.9634C13.925 7.07741 13.8846 7.0815 13.8462 7.08559H13.83C13.7896 7.09173 13.7491 7.09583 13.7087 7.10196H13.7006C13.6601 7.1081 13.6197 7.11424 13.5793 7.12038H13.5732C13.5328 7.12652 13.4923 7.13471 13.4539 7.14085H13.4397C13.4013 7.15108 13.3629 7.15722 13.3245 7.1654L13.3063 7.1695C13.2679 7.17768 13.2295 7.18587 13.191 7.19406L13.1769 7.19815C13.1385 7.20633 13.1 7.21657 13.0637 7.2268L13.0495 7.23089C13.0111 7.24112 12.9727 7.25136 12.9342 7.26364H12.9302C12.8493 7.28819 12.7705 7.31275 12.6916 7.33935L12.6815 7.34345C12.6451 7.35573 12.6067 7.37005 12.5703 7.38233L12.5581 7.38642C12.5218 7.40075 12.4854 7.41303 12.449 7.42735L12.4348 7.43349C12.3984 7.44782 12.362 7.46214 12.3276 7.47851L12.3175 7.48261C12.2811 7.49898 12.2427 7.51535 12.2063 7.53172H12.2043C12.1659 7.55014 12.1295 7.56856 12.0911 7.58698C12.0547 7.60539 12.0183 7.62381 11.9839 7.64223L11.9738 7.64837C11.9394 7.66679 11.905 7.68521 11.8707 7.70363L11.8606 7.70976C11.8262 7.72818 11.7938 7.7466 11.7595 7.76707L11.7453 7.77525C11.7109 7.79572 11.6786 7.81413 11.6442 7.8346L11.6381 7.83869C11.5674 7.88167 11.4986 7.92669 11.4299 7.97376H11.4258C11.3935 7.99832 11.3611 8.02083 11.3288 8.04538L11.3187 8.05152C11.2883 8.07404 11.256 8.09655 11.2256 8.1211L11.2135 8.12929C11.1832 8.1518 11.1528 8.17431 11.1245 8.19887L11.1104 8.2091C11.0801 8.23366 11.0517 8.25617 11.0214 8.28073L11.0133 8.28891C10.9506 8.34212 10.89 8.39533 10.8293 8.45058L10.8253 8.45468C10.797 8.48128 10.7666 8.50789 10.7383 8.53654L10.7282 8.54472C10.6999 8.57133 10.6736 8.59793 10.6473 8.62453L10.6352 8.63681C10.6089 8.66342 10.5826 8.69002 10.5564 8.71867L10.5442 8.73095C10.5179 8.7596 10.4916 8.78621 10.4674 8.81486L10.4593 8.82509C10.433 8.85374 10.4067 8.88444 10.3825 8.91309C10.1904 9.1382 10.0145 9.38173 9.86078 9.63753L9.84461 9.63549Z" fill="#FFCEB8"/>
</svg>
